HIERARCHY
ROOT Hips
{
    OFFSET 0.000000 0.000000 0.000000
    CHANNELS 6 Xposition Yposition Zposition Zrotation Xrotation Yrotation
    JOINT Spine
    {
        OFFSET -0.000000 7.979263 0.000000
        CHANNELS 3 Zrotation Xrotation Yrotation
        JOINT Spine1
        {
            OFFSET -0.000000 24.719021 0.000000
            CHANNELS 3 Zrotation Xrotation Yrotation
            JOINT Neck
            {
                OFFSET -0.000000 24.617504 2.237955
                CHANNELS 3 Zrotation Xrotation Yrotation
                JOINT Head
                {
                    OFFSET -0.000000 13.623132 -1.946162
                    CHANNELS 3 Zrotation Xrotation Yrotation
                    End Site
                    {
                        OFFSET -0.000000 24.327021 0.000000
                    }
                }
            }
            JOINT LeftShoulder
            {
                OFFSET 3.885773 23.018444 -0.302444
                CHANNELS 3 Zrotation Xrotation Yrotation
                JOINT LeftArm
                {
                    OFFSET 10.447750 0.000000 0.000000
                    CHANNELS 3 Zrotation Xrotation Yrotation
                    JOINT LeftForeArm
                    {
                        OFFSET 29.090096 0.000000 0.000000
                        CHANNELS 3 Zrotation Xrotation Yrotation
                        JOINT LeftHand
                        {
                            OFFSET 28.893339 0.000000 0.000000
                            CHANNELS 3 Zrotation Xrotation Yrotation
                            End Site
                            {
                                OFFSET 14.596213 0.000000 0.000000
                            }
                        }
                    }
                }
            }
            JOINT RightShoulder
            {
                OFFSET -3.864586 23.018444 -0.302444
                CHANNELS 3 Zrotation Xrotation Yrotation
                JOINT RightArm
                {
                    OFFSET -10.447750 0.000000 0.000000
                    CHANNELS 3 Zrotation Xrotation Yrotation
                    JOINT RightForeArm
                    {
                        OFFSET -29.090096 0.000000 0.000000
                        CHANNELS 3 Zrotation Xrotation Yrotation
                        JOINT RightHand
                        {
                            OFFSET -28.893339 0.000000 0.000000
                            CHANNELS 3 Zrotation Xrotation Yrotation
                            End Site
                            {
                                OFFSET -14.596213 0.000000 0.000000
                            }
                        }
                    }
                }
            }
        }
    }
    JOINT LeftUpLeg
    {
        OFFSET 9.730808 0.000000 0.000000
        CHANNELS 3 Zrotation Xrotation Yrotation
        JOINT LeftLeg
        {
            OFFSET -0.000000 -34.800129 0.000000
            CHANNELS 3 Zrotation Xrotation Yrotation
            JOINT LeftFoot
            {
                OFFSET -0.000000 -44.597416 0.000000
                CHANNELS 3 Zrotation Xrotation Yrotation
                JOINT LeftToeBase
                {
                    OFFSET -0.000000 -6.325025 14.596213
                    CHANNELS 3 Zrotation Xrotation Yrotation
                    End Site
                    {
                        OFFSET -0.000000 0.000000 3.892323
                    }
                }
            }
        }
    }
    JOINT RightUpLeg
    {
        OFFSET -9.730808 0.000000 0.000000
        CHANNELS 3 Zrotation Xrotation Yrotation
        JOINT RightLeg
        {
            OFFSET -0.000000 -34.800129 0.000000
            CHANNELS 3 Zrotation Xrotation Yrotation
            JOINT RightFoot
            {
                OFFSET -0.000000 -44.597416 0.000000
                CHANNELS 3 Zrotation Xrotation Yrotation
                JOINT RightToeBase
                {
                    OFFSET -0.000000 -6.325025 14.596213
                    CHANNELS 3 Zrotation Xrotation Yrotation
                    End Site
                    {
                        OFFSET -0.000000 0.000000 3.892323
                    }
                }
            }
        }
    }
}
MOTION
Frames:    4
Frame Time:    0.008333
30.204582    85.731979    40.342010    -0.427457    -1.490910    92.287537    5.513611    -1.896939    0.036278    -8.522866    -13.693160    -1.079935    4.343648    25.357635    9.743261    0.996769    8.841181    10.590709    13.462716    5.309584    -7.008288    -5.635547    22.283745    -2.660653    3.382553    -5.163051    -7.266315    -8.585946    -4.835186    -1.522261    -8.637153    6.969620    3.865999    15.543215    25.612774    3.913922    0.658189    -5.055815    3.714189    -7.256493    -5.249138    2.724183    3.178565    5.833707    -5.343633    -0.893341    -2.463433    10.195883    -5.341092    -3.644516    6.812243    0.000000    0.000000    0.000000    0.775597    7.027701    -2.504645    1.615498    -2.114782    -8.305204    1.408942    -2.978946    -0.216075    0.000000    0.000000    0.000000    
30.194563    85.817352    40.375526    -0.460811    -1.592838    92.382263    5.617697    -1.721206    0.002294    -8.639739    -14.150848    -1.156908    4.548342    25.238132    9.602359    1.087597    9.261799    10.458827    13.764892    5.566780    -6.956290    -5.698678    23.654039    -2.812666    3.513665    -5.427287    -7.507707    -8.875802    -5.047278    -1.945590    -8.564861    7.246963    3.965472    15.523847    26.835920    3.826275    0.892801    -5.319072    3.835515    -6.889073    -5.514505    2.764230    3.292597    5.752336    -5.335493    -0.873479    -2.443773    10.188718    -5.374540    -3.402156    6.767958    0.000000    0.000000    0.000000    0.938755    6.993502    -2.420479    1.567729    -2.139243    -8.492426    1.473293    -2.619145    -0.257301    0.000000    0.000000    0.000000    
30.212324    85.880661    40.396248    -0.401941    -1.663705    92.464607    5.708837    -1.472447    -0.055920    -8.724326    -14.626846    -1.251320    4.432249    25.557354    9.499358    1.349723    9.094857    10.373444    13.839749    5.981270    -6.914423    -5.564743    24.715494    -2.802692    3.526116    -5.622585    -7.852013    -9.311346    -5.189457    -2.369489    -8.449938    7.551841    4.085534    15.400271    28.077482    3.770084    1.076367    -5.589189    4.011344    -6.677250    -5.791401    2.836879    3.362108    5.812421    -5.364422    -0.835192    -2.465680    10.262367    -5.550879    -3.180504    6.694662    0.000000    0.000000    0.000000    1.049611    7.082076    -2.369182    1.542875    -2.177837    -8.636618    1.480496    -2.350123    -0.264734    0.000000    0.000000    0.000000    
30.204178    85.940483    40.415436    -0.398869    -1.682324    92.576088    5.627032    -1.269537    -0.068827    -8.628848    -15.092474    -1.276754    4.510499    25.650673    9.293651    1.440238    9.269451    10.174253    13.901479    6.195869    -7.236461    -5.714396    25.859348    -2.452953    3.688371    -5.997990    -8.289339    -9.951946    -5.513888    -2.517088    -8.336342    7.899315    4.026968    15.119061    29.042517    3.839558    1.367198    -5.684649    4.096329    -6.490753    -5.901393    2.979226    3.372311    5.759832    -5.417466    -0.796375    -2.412431    10.146026    -5.538250    -3.011748    6.808232    0.000000    0.000000    0.000000    1.083874    7.083025    -2.374074    1.555798    -2.175944    -8.704819    1.532690    -2.143473    -0.321217    0.000000    0.000000    0.000000    
